<?xml version="1.0" encoding="UTF-8" standalone="no"?>
<!-- Created with Inkscape (http://www.inkscape.org/) -->

<svg
   width="296.99997mm"
   height="210mm"
   viewBox="0 0 1122.5196 793.70081"
   version="1.1"
   id="svg1"
   xmlns="http://www.w3.org/2000/svg"
   xmlns:svg="http://www.w3.org/2000/svg">
  <defs
     id="defs1" />
  <g
     id="layer1">
    <g
       id="g3"
       transform="matrix(0.30508472,0,0,0.30508472,203.72236,173.11124)">
      <path
         style="opacity:0.05;fill:#e9e9e9;stroke:#a2bdcf;stroke-width:0"
         id="path1"
         d="m 355.45778,249.11128 -51.2838,11.01254 -11.01254,51.2838 -11.01254,-51.2838 -51.2838,-11.01254 51.2838,-11.01254 11.01254,-51.2838 11.01254,51.2838 z" />
      <path
         style="opacity:0.05;fill:#e9e9e9;stroke:#a2bdcf;stroke-width:0"
         id="path2"
         d="m 355.45778,249.11128 -51.2838,11.01254 -11.01254,51.2838 -11.01254,-51.2838 -51.2838,-11.01254 51.2838,-11.01254 11.01254,-51.2838 11.01254,51.2838 z"
         transform="matrix(0.64655173,0,0,0.64655173,103.6174,88.047952)" />
      <path
         style="opacity:0.05;fill:#e9e9e9;stroke:#a2bdcf;stroke-width:0"
         id="path3"
         d="m 355.45778,249.11128 -51.2838,11.01254 -11.01254,51.2838 -11.01254,-51.2838 -51.2838,-11.01254 51.2838,-11.01254 11.01254,-51.2838 11.01254,51.2838 z"
         transform="matrix(0.3448276,0,0,0.3448276,192.07128,163.21084)" />
    </g>
    <g
       id="g6"
       transform="matrix(0.23193574,0,0,0.23193574,345.16554,69.81578)">
      <path
         style="opacity:0.05;fill:#e9e9e9;stroke:#a2bdcf;stroke-width:0"
         id="path4"
         d="m 355.45778,249.11128 -51.2838,11.01254 -11.01254,51.2838 -11.01254,-51.2838 -51.2838,-11.01254 51.2838,-11.01254 11.01254,-51.2838 11.01254,51.2838 z" />
      <path
         style="opacity:0.05;fill:#e9e9e9;stroke:#a2bdcf;stroke-width:0"
         id="path5"
         d="m 355.45778,249.11128 -51.2838,11.01254 -11.01254,51.2838 -11.01254,-51.2838 -51.2838,-11.01254 51.2838,-11.01254 11.01254,-51.2838 11.01254,51.2838 z"
         transform="matrix(0.64655173,0,0,0.64655173,103.6174,88.047952)" />
      <path
         style="opacity:0.05;fill:#e9e9e9;stroke:#a2bdcf;stroke-width:0"
         id="path6"
         d="m 355.45778,249.11128 -51.2838,11.01254 -11.01254,51.2838 -11.01254,-51.2838 -51.2838,-11.01254 51.2838,-11.01254 11.01254,-51.2838 11.01254,51.2838 z"
         transform="matrix(0.3448276,0,0,0.3448276,192.07128,163.21084)" />
    </g>
    <g
       id="g9"
       transform="matrix(0.28070172,0,0,0.28070172,493.39915,158.6792)">
      <path
         style="opacity:0.05;fill:#e9e9e9;stroke:#a2bdcf;stroke-width:0"
         id="path7"
         d="m 355.45778,249.11128 -51.2838,11.01254 -11.01254,51.2838 -11.01254,-51.2838 -51.2838,-11.01254 51.2838,-11.01254 11.01254,-51.2838 11.01254,51.2838 z" />
      <path
         style="opacity:0.05;fill:#e9e9e9;stroke:#a2bdcf;stroke-width:0"
         id="path8"
         d="m 355.45778,249.11128 -51.2838,11.01254 -11.01254,51.2838 -11.01254,-51.2838 -51.2838,-11.01254 51.2838,-11.01254 11.01254,-51.2838 11.01254,51.2838 z"
         transform="matrix(0.64655173,0,0,0.64655173,103.6174,88.047952)" />
      <path
         style="opacity:0.05;fill:#e9e9e9;stroke:#a2bdcf;stroke-width:0"
         id="path9"
         d="m 355.45778,249.11128 -51.2838,11.01254 -11.01254,51.2838 -11.01254,-51.2838 -51.2838,-11.01254 51.2838,-11.01254 11.01254,-51.2838 11.01254,51.2838 z"
         transform="matrix(0.3448276,0,0,0.3448276,192.07128,163.21084)" />
    </g>
    <g
       id="g12"
       transform="matrix(0.19536125,0,0,0.19536125,373.35594,310.56999)">
      <path
         style="opacity:0.05;fill:#e9e9e9;stroke:#a2bdcf;stroke-width:0"
         id="path10"
         d="m 355.45778,249.11128 -51.2838,11.01254 -11.01254,51.2838 -11.01254,-51.2838 -51.2838,-11.01254 51.2838,-11.01254 11.01254,-51.2838 11.01254,51.2838 z" />
      <path
         style="opacity:0.05;fill:#e9e9e9;stroke:#a2bdcf;stroke-width:0"
         id="path11"
         d="m 355.45778,249.11128 -51.2838,11.01254 -11.01254,51.2838 -11.01254,-51.2838 -51.2838,-11.01254 51.2838,-11.01254 11.01254,-51.2838 11.01254,51.2838 z"
         transform="matrix(0.64655173,0,0,0.64655173,103.6174,88.047952)" />
      <path
         style="opacity:0.05;fill:#e9e9e9;stroke:#a2bdcf;stroke-width:0"
         id="path12"
         d="m 355.45778,249.11128 -51.2838,11.01254 -11.01254,51.2838 -11.01254,-51.2838 -51.2838,-11.01254 51.2838,-11.01254 11.01254,-51.2838 11.01254,51.2838 z"
         transform="matrix(0.3448276,0,0,0.3448276,192.07128,163.21084)" />
    </g>
    <g
       id="g15"
       transform="matrix(0.19536125,0,0,0.19536125,382.46977,193.60921)">
      <path
         style="opacity:0.05;fill:#e9e9e9;stroke:#a2bdcf;stroke-width:0"
         id="path13"
         d="m 355.45778,249.11128 -51.2838,11.01254 -11.01254,51.2838 -11.01254,-51.2838 -51.2838,-11.01254 51.2838,-11.01254 11.01254,-51.2838 11.01254,51.2838 z" />
      <path
         style="opacity:0.05;fill:#e9e9e9;stroke:#a2bdcf;stroke-width:0"
         id="path14"
         d="m 355.45778,249.11128 -51.2838,11.01254 -11.01254,51.2838 -11.01254,-51.2838 -51.2838,-11.01254 51.2838,-11.01254 11.01254,-51.2838 11.01254,51.2838 z"
         transform="matrix(0.64655173,0,0,0.64655173,103.6174,88.047952)" />
      <path
         style="opacity:0.05;fill:#e9e9e9;stroke:#a2bdcf;stroke-width:0"
         id="path15"
         d="m 355.45778,249.11128 -51.2838,11.01254 -11.01254,51.2838 -11.01254,-51.2838 -51.2838,-11.01254 51.2838,-11.01254 11.01254,-51.2838 11.01254,51.2838 z"
         transform="matrix(0.3448276,0,0,0.3448276,192.07128,163.21084)" />
    </g>
    <g
       id="g18"
       transform="matrix(0.24412723,0,0,0.24412723,552.25382,329.5377)">
      <path
         style="opacity:0.05;fill:#e9e9e9;stroke:#a2bdcf;stroke-width:0"
         id="path16"
         d="m 355.45778,249.11128 -51.2838,11.01254 -11.01254,51.2838 -11.01254,-51.2838 -51.2838,-11.01254 51.2838,-11.01254 11.01254,-51.2838 11.01254,51.2838 z" />
      <path
         style="opacity:0.05;fill:#e9e9e9;stroke:#a2bdcf;stroke-width:0"
         id="path17"
         d="m 355.45778,249.11128 -51.2838,11.01254 -11.01254,51.2838 -11.01254,-51.2838 -51.2838,-11.01254 51.2838,-11.01254 11.01254,-51.2838 11.01254,51.2838 z"
         transform="matrix(0.64655173,0,0,0.64655173,103.6174,88.047952)" />
      <path
         style="opacity:0.05;fill:#e9e9e9;stroke:#a2bdcf;stroke-width:0"
         id="path18"
         d="m 355.45778,249.11128 -51.2838,11.01254 -11.01254,51.2838 -11.01254,-51.2838 -51.2838,-11.01254 51.2838,-11.01254 11.01254,-51.2838 11.01254,51.2838 z"
         transform="matrix(0.3448276,0,0,0.3448276,192.07128,163.21084)" />
    </g>
    <g
       id="g21"
       transform="matrix(0.24412723,0,0,0.24412723,581.00061,229.09658)">
      <path
         style="opacity:0.05;fill:#e9e9e9;stroke:#a2bdcf;stroke-width:0"
         id="path19"
         d="m 355.45778,249.11128 -51.2838,11.01254 -11.01254,51.2838 -11.01254,-51.2838 -51.2838,-11.01254 51.2838,-11.01254 11.01254,-51.2838 11.01254,51.2838 z" />
      <path
         style="opacity:0.05;fill:#e9e9e9;stroke:#a2bdcf;stroke-width:0"
         id="path20"
         d="m 355.45778,249.11128 -51.2838,11.01254 -11.01254,51.2838 -11.01254,-51.2838 -51.2838,-11.01254 51.2838,-11.01254 11.01254,-51.2838 11.01254,51.2838 z"
         transform="matrix(0.64655173,0,0,0.64655173,103.6174,88.047952)" />
      <path
         style="opacity:0.05;fill:#e9e9e9;stroke:#a2bdcf;stroke-width:0"
         id="path21"
         d="m 355.45778,249.11128 -51.2838,11.01254 -11.01254,51.2838 -11.01254,-51.2838 -51.2838,-11.01254 51.2838,-11.01254 11.01254,-51.2838 11.01254,51.2838 z"
         transform="matrix(0.3448276,0,0,0.3448276,192.07128,163.21084)" />
    </g>
    <g
       id="g24"
       transform="matrix(0.24412723,0,0,0.24412723,582.07468,142.09652)">
      <path
         style="opacity:0.05;fill:#e9e9e9;stroke:#a2bdcf;stroke-width:0"
         id="path22"
         d="m 355.45778,249.11128 -51.2838,11.01254 -11.01254,51.2838 -11.01254,-51.2838 -51.2838,-11.01254 51.2838,-11.01254 11.01254,-51.2838 11.01254,51.2838 z" />
      <path
         style="opacity:0.05;fill:#e9e9e9;stroke:#a2bdcf;stroke-width:0"
         id="path23"
         d="m 355.45778,249.11128 -51.2838,11.01254 -11.01254,51.2838 -11.01254,-51.2838 -51.2838,-11.01254 51.2838,-11.01254 11.01254,-51.2838 11.01254,51.2838 z"
         transform="matrix(0.64655173,0,0,0.64655173,103.6174,88.047952)" />
      <path
         style="opacity:0.05;fill:#e9e9e9;stroke:#a2bdcf;stroke-width:0"
         id="path24"
         d="m 355.45778,249.11128 -51.2838,11.01254 -11.01254,51.2838 -11.01254,-51.2838 -51.2838,-11.01254 51.2838,-11.01254 11.01254,-51.2838 11.01254,51.2838 z"
         transform="matrix(0.3448276,0,0,0.3448276,192.07128,163.21084)" />
    </g>
    <g
       id="g27"
       transform="matrix(0.14067896,0,0,0.14067896,749.8833,110.94069)">
      <path
         style="opacity:0.05;fill:#e9e9e9;stroke:#a2bdcf;stroke-width:0"
         id="path25"
         d="m 355.45778,249.11128 -51.2838,11.01254 -11.01254,51.2838 -11.01254,-51.2838 -51.2838,-11.01254 51.2838,-11.01254 11.01254,-51.2838 11.01254,51.2838 z" />
      <path
         style="opacity:0.05;fill:#e9e9e9;stroke:#a2bdcf;stroke-width:0"
         id="path26"
         d="m 355.45778,249.11128 -51.2838,11.01254 -11.01254,51.2838 -11.01254,-51.2838 -51.2838,-11.01254 51.2838,-11.01254 11.01254,-51.2838 11.01254,51.2838 z"
         transform="matrix(0.64655173,0,0,0.64655173,103.6174,88.047952)" />
      <path
         style="opacity:0.05;fill:#e9e9e9;stroke:#a2bdcf;stroke-width:0"
         id="path27"
         d="m 355.45778,249.11128 -51.2838,11.01254 -11.01254,51.2838 -11.01254,-51.2838 -51.2838,-11.01254 51.2838,-11.01254 11.01254,-51.2838 11.01254,51.2838 z"
         transform="matrix(0.3448276,0,0,0.3448276,192.07128,163.21084)" />
    </g>
    <g
       id="g30"
       transform="matrix(0.14067896,0,0,0.14067896,709.06846,189.34815)">
      <path
         style="opacity:0.05;fill:#e9e9e9;stroke:#a2bdcf;stroke-width:0"
         id="path28"
         d="m 355.45778,249.11128 -51.2838,11.01254 -11.01254,51.2838 -11.01254,-51.2838 -51.2838,-11.01254 51.2838,-11.01254 11.01254,-51.2838 11.01254,51.2838 z" />
      <path
         style="opacity:0.05;fill:#e9e9e9;stroke:#a2bdcf;stroke-width:0"
         id="path29"
         d="m 355.45778,249.11128 -51.2838,11.01254 -11.01254,51.2838 -11.01254,-51.2838 -51.2838,-11.01254 51.2838,-11.01254 11.01254,-51.2838 11.01254,51.2838 z"
         transform="matrix(0.64655173,0,0,0.64655173,103.6174,88.047952)" />
      <path
         style="opacity:0.05;fill:#e9e9e9;stroke:#a2bdcf;stroke-width:0"
         id="path30"
         d="m 355.45778,249.11128 -51.2838,11.01254 -11.01254,51.2838 -11.01254,-51.2838 -51.2838,-11.01254 51.2838,-11.01254 11.01254,-51.2838 11.01254,51.2838 z"
         transform="matrix(0.3448276,0,0,0.3448276,192.07128,163.21084)" />
    </g>
    <g
       id="g33"
       transform="matrix(0.23193574,0,0,0.23193574,450.42487,60.149107)">
      <path
         style="opacity:0.05;fill:#e9e9e9;stroke:#a2bdcf;stroke-width:0"
         id="path31"
         d="m 355.45778,249.11128 -51.2838,11.01254 -11.01254,51.2838 -11.01254,-51.2838 -51.2838,-11.01254 51.2838,-11.01254 11.01254,-51.2838 11.01254,51.2838 z" />
      <path
         style="opacity:0.05;fill:#e9e9e9;stroke:#a2bdcf;stroke-width:0"
         id="path32"
         d="m 355.45778,249.11128 -51.2838,11.01254 -11.01254,51.2838 -11.01254,-51.2838 -51.2838,-11.01254 51.2838,-11.01254 11.01254,-51.2838 11.01254,51.2838 z"
         transform="matrix(0.64655173,0,0,0.64655173,103.6174,88.047952)" />
      <path
         style="opacity:0.05;fill:#e9e9e9;stroke:#a2bdcf;stroke-width:0"
         id="path33"
         d="m 355.45778,249.11128 -51.2838,11.01254 -11.01254,51.2838 -11.01254,-51.2838 -51.2838,-11.01254 51.2838,-11.01254 11.01254,-51.2838 11.01254,51.2838 z"
         transform="matrix(0.3448276,0,0,0.3448276,192.07128,163.21084)" />
    </g>
    <g
       id="g36"
       transform="matrix(0.23193574,0,0,0.23193574,586.83237,17.186114)">
      <path
         style="opacity:0.05;fill:#e9e9e9;stroke:#a2bdcf;stroke-width:0"
         id="path34"
         d="m 355.45778,249.11128 -51.2838,11.01254 -11.01254,51.2838 -11.01254,-51.2838 -51.2838,-11.01254 51.2838,-11.01254 11.01254,-51.2838 11.01254,51.2838 z" />
      <path
         style="opacity:0.05;fill:#e9e9e9;stroke:#a2bdcf;stroke-width:0"
         id="path35"
         d="m 355.45778,249.11128 -51.2838,11.01254 -11.01254,51.2838 -11.01254,-51.2838 -51.2838,-11.01254 51.2838,-11.01254 11.01254,-51.2838 11.01254,51.2838 z"
         transform="matrix(0.64655173,0,0,0.64655173,103.6174,88.047952)" />
      <path
         style="opacity:0.05;fill:#e9e9e9;stroke:#a2bdcf;stroke-width:0"
         id="path36"
         d="m 355.45778,249.11128 -51.2838,11.01254 -11.01254,51.2838 -11.01254,-51.2838 -51.2838,-11.01254 51.2838,-11.01254 11.01254,-51.2838 11.01254,51.2838 z"
         transform="matrix(0.3448276,0,0,0.3448276,192.07128,163.21084)" />
    </g>
    <g
       id="g39"
       transform="matrix(0.23193574,0,0,0.23193574,664.16576,25.778713)">
      <path
         style="opacity:0.05;fill:#e9e9e9;stroke:#a2bdcf;stroke-width:0"
         id="path37"
         d="m 355.45778,249.11128 -51.2838,11.01254 -11.01254,51.2838 -11.01254,-51.2838 -51.2838,-11.01254 51.2838,-11.01254 11.01254,-51.2838 11.01254,51.2838 z" />
      <path
         style="opacity:0.05;fill:#e9e9e9;stroke:#a2bdcf;stroke-width:0"
         id="path38"
         d="m 355.45778,249.11128 -51.2838,11.01254 -11.01254,51.2838 -11.01254,-51.2838 -51.2838,-11.01254 51.2838,-11.01254 11.01254,-51.2838 11.01254,51.2838 z"
         transform="matrix(0.64655173,0,0,0.64655173,103.6174,88.047952)" />
      <path
         style="opacity:0.05;fill:#e9e9e9;stroke:#a2bdcf;stroke-width:0"
         id="path39"
         d="m 355.45778,249.11128 -51.2838,11.01254 -11.01254,51.2838 -11.01254,-51.2838 -51.2838,-11.01254 51.2838,-11.01254 11.01254,-51.2838 11.01254,51.2838 z"
         transform="matrix(0.3448276,0,0,0.3448276,192.07128,163.21084)" />
    </g>
    <g
       id="g42"
       transform="matrix(0.23193574,0,0,0.23193574,836.01773,36.519461)">
      <path
         style="opacity:0.05;fill:#e9e9e9;stroke:#a2bdcf;stroke-width:0"
         id="path40"
         d="m 355.45778,249.11128 -51.2838,11.01254 -11.01254,51.2838 -11.01254,-51.2838 -51.2838,-11.01254 51.2838,-11.01254 11.01254,-51.2838 11.01254,51.2838 z" />
      <path
         style="opacity:0.05;fill:#e9e9e9;stroke:#a2bdcf;stroke-width:0"
         id="path41"
         d="m 355.45778,249.11128 -51.2838,11.01254 -11.01254,51.2838 -11.01254,-51.2838 -51.2838,-11.01254 51.2838,-11.01254 11.01254,-51.2838 11.01254,51.2838 z"
         transform="matrix(0.64655173,0,0,0.64655173,103.6174,88.047952)" />
      <path
         style="opacity:0.05;fill:#e9e9e9;stroke:#a2bdcf;stroke-width:0"
         id="path42"
         d="m 355.45778,249.11128 -51.2838,11.01254 -11.01254,51.2838 -11.01254,-51.2838 -51.2838,-11.01254 51.2838,-11.01254 11.01254,-51.2838 11.01254,51.2838 z"
         transform="matrix(0.3448276,0,0,0.3448276,192.07128,163.21084)" />
    </g>
    <g
       id="g45"
       transform="matrix(0.23193574,0,0,0.23193574,762.98064,139.63064)">
      <path
         style="opacity:0.05;fill:#e9e9e9;stroke:#a2bdcf;stroke-width:0"
         id="path43"
         d="m 355.45778,249.11128 -51.2838,11.01254 -11.01254,51.2838 -11.01254,-51.2838 -51.2838,-11.01254 51.2838,-11.01254 11.01254,-51.2838 11.01254,51.2838 z" />
      <path
         style="opacity:0.05;fill:#e9e9e9;stroke:#a2bdcf;stroke-width:0"
         id="path44"
         d="m 355.45778,249.11128 -51.2838,11.01254 -11.01254,51.2838 -11.01254,-51.2838 -51.2838,-11.01254 51.2838,-11.01254 11.01254,-51.2838 11.01254,51.2838 z"
         transform="matrix(0.64655173,0,0,0.64655173,103.6174,88.047952)" />
      <path
         style="opacity:0.05;fill:#e9e9e9;stroke:#a2bdcf;stroke-width:0"
         id="path45"
         d="m 355.45778,249.11128 -51.2838,11.01254 -11.01254,51.2838 -11.01254,-51.2838 -51.2838,-11.01254 51.2838,-11.01254 11.01254,-51.2838 11.01254,51.2838 z"
         transform="matrix(0.3448276,0,0,0.3448276,192.07128,163.21084)" />
    </g>
    <g
       id="g48"
       transform="matrix(0.23193574,0,0,0.23193574,683.4991,277.11222)">
      <path
         style="opacity:0.05;fill:#e9e9e9;stroke:#a2bdcf;stroke-width:0"
         id="path46"
         d="m 355.45778,249.11128 -51.2838,11.01254 -11.01254,51.2838 -11.01254,-51.2838 -51.2838,-11.01254 51.2838,-11.01254 11.01254,-51.2838 11.01254,51.2838 z" />
      <path
         style="opacity:0.05;fill:#e9e9e9;stroke:#a2bdcf;stroke-width:0"
         id="path47"
         d="m 355.45778,249.11128 -51.2838,11.01254 -11.01254,51.2838 -11.01254,-51.2838 -51.2838,-11.01254 51.2838,-11.01254 11.01254,-51.2838 11.01254,51.2838 z"
         transform="matrix(0.64655173,0,0,0.64655173,103.6174,88.047952)" />
      <path
         style="opacity:0.05;fill:#e9e9e9;stroke:#a2bdcf;stroke-width:0"
         id="path48"
         d="m 355.45778,249.11128 -51.2838,11.01254 -11.01254,51.2838 -11.01254,-51.2838 -51.2838,-11.01254 51.2838,-11.01254 11.01254,-51.2838 11.01254,51.2838 z"
         transform="matrix(0.3448276,0,0,0.3448276,192.07128,163.21084)" />
    </g>
    <g
       id="g51"
       transform="matrix(0.23193574,0,0,0.23193574,449.35079,255.63072)">
      <path
         style="opacity:0.05;fill:#e9e9e9;stroke:#a2bdcf;stroke-width:0"
         id="path49"
         d="m 355.45778,249.11128 -51.2838,11.01254 -11.01254,51.2838 -11.01254,-51.2838 -51.2838,-11.01254 51.2838,-11.01254 11.01254,-51.2838 11.01254,51.2838 z" />
      <path
         style="opacity:0.05;fill:#e9e9e9;stroke:#a2bdcf;stroke-width:0"
         id="path50"
         d="m 355.45778,249.11128 -51.2838,11.01254 -11.01254,51.2838 -11.01254,-51.2838 -51.2838,-11.01254 51.2838,-11.01254 11.01254,-51.2838 11.01254,51.2838 z"
         transform="matrix(0.64655173,0,0,0.64655173,103.6174,88.047952)" />
      <path
         style="opacity:0.05;fill:#e9e9e9;stroke:#a2bdcf;stroke-width:0"
         id="path51"
         d="m 355.45778,249.11128 -51.2838,11.01254 -11.01254,51.2838 -11.01254,-51.2838 -51.2838,-11.01254 51.2838,-11.01254 11.01254,-51.2838 11.01254,51.2838 z"
         transform="matrix(0.3448276,0,0,0.3448276,192.07128,163.21084)" />
    </g>
    <g
       id="g54"
       transform="matrix(0.23193574,0,0,0.23193574,213.05433,73.037999)">
      <path
         style="opacity:0.05;fill:#e9e9e9;stroke:#a2bdcf;stroke-width:0"
         id="path52"
         d="m 355.45778,249.11128 -51.2838,11.01254 -11.01254,51.2838 -11.01254,-51.2838 -51.2838,-11.01254 51.2838,-11.01254 11.01254,-51.2838 11.01254,51.2838 z" />
      <path
         style="opacity:0.05;fill:#e9e9e9;stroke:#a2bdcf;stroke-width:0"
         id="path53"
         d="m 355.45778,249.11128 -51.2838,11.01254 -11.01254,51.2838 -11.01254,-51.2838 -51.2838,-11.01254 51.2838,-11.01254 11.01254,-51.2838 11.01254,51.2838 z"
         transform="matrix(0.64655173,0,0,0.64655173,103.6174,88.047952)" />
      <path
         style="opacity:0.05;fill:#e9e9e9;stroke:#a2bdcf;stroke-width:0"
         id="path54"
         d="m 355.45778,249.11128 -51.2838,11.01254 -11.01254,51.2838 -11.01254,-51.2838 -51.2838,-11.01254 51.2838,-11.01254 11.01254,-51.2838 11.01254,51.2838 z"
         transform="matrix(0.3448276,0,0,0.3448276,192.07128,163.21084)" />
    </g>
    <g
       id="g57"
       transform="matrix(0.23193574,0,0,0.23193574,114.23945,174.00103)">
      <path
         style="opacity:0.05;fill:#e9e9e9;stroke:#a2bdcf;stroke-width:0"
         id="path55"
         d="m 355.45778,249.11128 -51.2838,11.01254 -11.01254,51.2838 -11.01254,-51.2838 -51.2838,-11.01254 51.2838,-11.01254 11.01254,-51.2838 11.01254,51.2838 z" />
      <path
         style="opacity:0.05;fill:#e9e9e9;stroke:#a2bdcf;stroke-width:0"
         id="path56"
         d="m 355.45778,249.11128 -51.2838,11.01254 -11.01254,51.2838 -11.01254,-51.2838 -51.2838,-11.01254 51.2838,-11.01254 11.01254,-51.2838 11.01254,51.2838 z"
         transform="matrix(0.64655173,0,0,0.64655173,103.6174,88.047952)" />
      <path
         style="opacity:0.05;fill:#e9e9e9;stroke:#a2bdcf;stroke-width:0"
         id="path57"
         d="m 355.45778,249.11128 -51.2838,11.01254 -11.01254,51.2838 -11.01254,-51.2838 -51.2838,-11.01254 51.2838,-11.01254 11.01254,-51.2838 11.01254,51.2838 z"
         transform="matrix(0.3448276,0,0,0.3448276,192.07128,163.21084)" />
    </g>
    <g
       id="g60"
       transform="matrix(0.30508472,0,0,0.30508472,165.05567,546.88928)">
      <path
         style="opacity:0.05;fill:#e9e9e9;stroke:#a2bdcf;stroke-width:0"
         id="path58"
         d="m 355.45778,249.11128 -51.2838,11.01254 -11.01254,51.2838 -11.01254,-51.2838 -51.2838,-11.01254 51.2838,-11.01254 11.01254,-51.2838 11.01254,51.2838 z" />
      <path
         style="opacity:0.05;fill:#e9e9e9;stroke:#a2bdcf;stroke-width:0"
         id="path59"
         d="m 355.45778,249.11128 -51.2838,11.01254 -11.01254,51.2838 -11.01254,-51.2838 -51.2838,-11.01254 51.2838,-11.01254 11.01254,-51.2838 11.01254,51.2838 z"
         transform="matrix(0.64655173,0,0,0.64655173,103.6174,88.047952)" />
      <path
         style="opacity:0.05;fill:#e9e9e9;stroke:#a2bdcf;stroke-width:0"
         id="path60"
         d="m 355.45778,249.11128 -51.2838,11.01254 -11.01254,51.2838 -11.01254,-51.2838 -51.2838,-11.01254 51.2838,-11.01254 11.01254,-51.2838 11.01254,51.2838 z"
         transform="matrix(0.3448276,0,0,0.3448276,192.07128,163.21084)" />
    </g>
    <g
       id="g63"
       transform="matrix(0.23193574,0,0,0.23193574,306.49885,443.59382)">
      <path
         style="opacity:0.05;fill:#e9e9e9;stroke:#a2bdcf;stroke-width:0"
         id="path61"
         d="m 355.45778,249.11128 -51.2838,11.01254 -11.01254,51.2838 -11.01254,-51.2838 -51.2838,-11.01254 51.2838,-11.01254 11.01254,-51.2838 11.01254,51.2838 z" />
      <path
         style="opacity:0.05;fill:#e9e9e9;stroke:#a2bdcf;stroke-width:0"
         id="path62"
         d="m 355.45778,249.11128 -51.2838,11.01254 -11.01254,51.2838 -11.01254,-51.2838 -51.2838,-11.01254 51.2838,-11.01254 11.01254,-51.2838 11.01254,51.2838 z"
         transform="matrix(0.64655173,0,0,0.64655173,103.6174,88.047952)" />
      <path
         style="opacity:0.05;fill:#e9e9e9;stroke:#a2bdcf;stroke-width:0"
         id="path63"
         d="m 355.45778,249.11128 -51.2838,11.01254 -11.01254,51.2838 -11.01254,-51.2838 -51.2838,-11.01254 51.2838,-11.01254 11.01254,-51.2838 11.01254,51.2838 z"
         transform="matrix(0.3448276,0,0,0.3448276,192.07128,163.21084)" />
    </g>
    <g
       id="g66"
       transform="matrix(0.19536125,0,0,0.19536125,343.80308,567.38725)">
      <path
         style="opacity:0.05;fill:#e9e9e9;stroke:#a2bdcf;stroke-width:0"
         id="path64"
         d="m 355.45778,249.11128 -51.2838,11.01254 -11.01254,51.2838 -11.01254,-51.2838 -51.2838,-11.01254 51.2838,-11.01254 11.01254,-51.2838 11.01254,51.2838 z" />
      <path
         style="opacity:0.05;fill:#e9e9e9;stroke:#a2bdcf;stroke-width:0"
         id="path65"
         d="m 355.45778,249.11128 -51.2838,11.01254 -11.01254,51.2838 -11.01254,-51.2838 -51.2838,-11.01254 51.2838,-11.01254 11.01254,-51.2838 11.01254,51.2838 z"
         transform="matrix(0.64655173,0,0,0.64655173,103.6174,88.047952)" />
      <path
         style="opacity:0.05;fill:#e9e9e9;stroke:#a2bdcf;stroke-width:0"
         id="path66"
         d="m 355.45778,249.11128 -51.2838,11.01254 -11.01254,51.2838 -11.01254,-51.2838 -51.2838,-11.01254 51.2838,-11.01254 11.01254,-51.2838 11.01254,51.2838 z"
         transform="matrix(0.3448276,0,0,0.3448276,192.07128,163.21084)" />
    </g>
    <g
       id="g69"
       transform="matrix(0.23193574,0,0,0.23193574,411.75818,433.92715)">
      <path
         style="opacity:0.05;fill:#e9e9e9;stroke:#a2bdcf;stroke-width:0"
         id="path67"
         d="m 355.45778,249.11128 -51.2838,11.01254 -11.01254,51.2838 -11.01254,-51.2838 -51.2838,-11.01254 51.2838,-11.01254 11.01254,-51.2838 11.01254,51.2838 z" />
      <path
         style="opacity:0.05;fill:#e9e9e9;stroke:#a2bdcf;stroke-width:0"
         id="path68"
         d="m 355.45778,249.11128 -51.2838,11.01254 -11.01254,51.2838 -11.01254,-51.2838 -51.2838,-11.01254 51.2838,-11.01254 11.01254,-51.2838 11.01254,51.2838 z"
         transform="matrix(0.64655173,0,0,0.64655173,103.6174,88.047952)" />
      <path
         style="opacity:0.05;fill:#e9e9e9;stroke:#a2bdcf;stroke-width:0"
         id="path69"
         d="m 355.45778,249.11128 -51.2838,11.01254 -11.01254,51.2838 -11.01254,-51.2838 -51.2838,-11.01254 51.2838,-11.01254 11.01254,-51.2838 11.01254,51.2838 z"
         transform="matrix(0.3448276,0,0,0.3448276,192.07128,163.21084)" />
    </g>
    <g
       id="g72"
       transform="matrix(0.23193574,0,0,0.23193574,174.38764,446.81604)">
      <path
         style="opacity:0.05;fill:#e9e9e9;stroke:#a2bdcf;stroke-width:0"
         id="path70"
         d="m 355.45778,249.11128 -51.2838,11.01254 -11.01254,51.2838 -11.01254,-51.2838 -51.2838,-11.01254 51.2838,-11.01254 11.01254,-51.2838 11.01254,51.2838 z" />
      <path
         style="opacity:0.05;fill:#e9e9e9;stroke:#a2bdcf;stroke-width:0"
         id="path71"
         d="m 355.45778,249.11128 -51.2838,11.01254 -11.01254,51.2838 -11.01254,-51.2838 -51.2838,-11.01254 51.2838,-11.01254 11.01254,-51.2838 11.01254,51.2838 z"
         transform="matrix(0.64655173,0,0,0.64655173,103.6174,88.047952)" />
      <path
         style="opacity:0.05;fill:#e9e9e9;stroke:#a2bdcf;stroke-width:0"
         id="path72"
         d="m 355.45778,249.11128 -51.2838,11.01254 -11.01254,51.2838 -11.01254,-51.2838 -51.2838,-11.01254 51.2838,-11.01254 11.01254,-51.2838 11.01254,51.2838 z"
         transform="matrix(0.3448276,0,0,0.3448276,192.07128,163.21084)" />
    </g>
    <g
       id="g75"
       transform="matrix(0.23193574,0,0,0.23193574,75.572756,547.77907)">
      <path
         style="opacity:0.05;fill:#e9e9e9;stroke:#a2bdcf;stroke-width:0"
         id="path73"
         d="m 355.45778,249.11128 -51.2838,11.01254 -11.01254,51.2838 -11.01254,-51.2838 -51.2838,-11.01254 51.2838,-11.01254 11.01254,-51.2838 11.01254,51.2838 z" />
      <path
         style="opacity:0.05;fill:#e9e9e9;stroke:#a2bdcf;stroke-width:0"
         id="path74"
         d="m 355.45778,249.11128 -51.2838,11.01254 -11.01254,51.2838 -11.01254,-51.2838 -51.2838,-11.01254 51.2838,-11.01254 11.01254,-51.2838 11.01254,51.2838 z"
         transform="matrix(0.64655173,0,0,0.64655173,103.6174,88.047952)" />
      <path
         style="opacity:0.05;fill:#e9e9e9;stroke:#a2bdcf;stroke-width:0"
         id="path75"
         d="m 355.45778,249.11128 -51.2838,11.01254 -11.01254,51.2838 -11.01254,-51.2838 -51.2838,-11.01254 51.2838,-11.01254 11.01254,-51.2838 11.01254,51.2838 z"
         transform="matrix(0.3448276,0,0,0.3448276,192.07128,163.21084)" />
    </g>
    <g
       id="g78"
       transform="matrix(0.19536125,0,0,0.19536125,502.24492,484.57011)">
      <path
         style="opacity:0.05;fill:#e9e9e9;stroke:#a2bdcf;stroke-width:0"
         id="path76"
         d="m 355.45778,249.11128 -51.2838,11.01254 -11.01254,51.2838 -11.01254,-51.2838 -51.2838,-11.01254 51.2838,-11.01254 11.01254,-51.2838 11.01254,51.2838 z" />
      <path
         style="opacity:0.05;fill:#e9e9e9;stroke:#a2bdcf;stroke-width:0"
         id="path77"
         d="m 355.45778,249.11128 -51.2838,11.01254 -11.01254,51.2838 -11.01254,-51.2838 -51.2838,-11.01254 51.2838,-11.01254 11.01254,-51.2838 11.01254,51.2838 z"
         transform="matrix(0.64655173,0,0,0.64655173,103.6174,88.047952)" />
      <path
         style="opacity:0.05;fill:#e9e9e9;stroke:#a2bdcf;stroke-width:0"
         id="path78"
         d="m 355.45778,249.11128 -51.2838,11.01254 -11.01254,51.2838 -11.01254,-51.2838 -51.2838,-11.01254 51.2838,-11.01254 11.01254,-51.2838 11.01254,51.2838 z"
         transform="matrix(0.3448276,0,0,0.3448276,192.07128,163.21084)" />
    </g>
    <g
       id="g81"
       transform="matrix(0.19536125,0,0,0.19536125,511.35875,367.60933)">
      <path
         style="opacity:0.05;fill:#e9e9e9;stroke:#a2bdcf;stroke-width:0"
         id="path79"
         d="m 355.45778,249.11128 -51.2838,11.01254 -11.01254,51.2838 -11.01254,-51.2838 -51.2838,-11.01254 51.2838,-11.01254 11.01254,-51.2838 11.01254,51.2838 z" />
      <path
         style="opacity:0.05;fill:#e9e9e9;stroke:#a2bdcf;stroke-width:0"
         id="path80"
         d="m 355.45778,249.11128 -51.2838,11.01254 -11.01254,51.2838 -11.01254,-51.2838 -51.2838,-11.01254 51.2838,-11.01254 11.01254,-51.2838 11.01254,51.2838 z"
         transform="matrix(0.64655173,0,0,0.64655173,103.6174,88.047952)" />
      <path
         style="opacity:0.05;fill:#e9e9e9;stroke:#a2bdcf;stroke-width:0"
         id="path81"
         d="m 355.45778,249.11128 -51.2838,11.01254 -11.01254,51.2838 -11.01254,-51.2838 -51.2838,-11.01254 51.2838,-11.01254 11.01254,-51.2838 11.01254,51.2838 z"
         transform="matrix(0.3448276,0,0,0.3448276,192.07128,163.21084)" />
    </g>
    <g
       id="g84"
       transform="matrix(0.24412723,0,0,0.24412723,709.88959,403.0967)">
      <path
         style="opacity:0.05;fill:#e9e9e9;stroke:#a2bdcf;stroke-width:0"
         id="path82"
         d="m 355.45778,249.11128 -51.2838,11.01254 -11.01254,51.2838 -11.01254,-51.2838 -51.2838,-11.01254 51.2838,-11.01254 11.01254,-51.2838 11.01254,51.2838 z" />
      <path
         style="opacity:0.05;fill:#e9e9e9;stroke:#a2bdcf;stroke-width:0"
         id="path83"
         d="m 355.45778,249.11128 -51.2838,11.01254 -11.01254,51.2838 -11.01254,-51.2838 -51.2838,-11.01254 51.2838,-11.01254 11.01254,-51.2838 11.01254,51.2838 z"
         transform="matrix(0.64655173,0,0,0.64655173,103.6174,88.047952)" />
      <path
         style="opacity:0.05;fill:#e9e9e9;stroke:#a2bdcf;stroke-width:0"
         id="path84"
         d="m 355.45778,249.11128 -51.2838,11.01254 -11.01254,51.2838 -11.01254,-51.2838 -51.2838,-11.01254 51.2838,-11.01254 11.01254,-51.2838 11.01254,51.2838 z"
         transform="matrix(0.3448276,0,0,0.3448276,192.07128,163.21084)" />
    </g>
    <g
       id="g87"
       transform="matrix(0.14067896,0,0,0.14067896,837.95744,363.34827)">
      <path
         style="opacity:0.05;fill:#e9e9e9;stroke:#a2bdcf;stroke-width:0"
         id="path85"
         d="m 355.45778,249.11128 -51.2838,11.01254 -11.01254,51.2838 -11.01254,-51.2838 -51.2838,-11.01254 51.2838,-11.01254 11.01254,-51.2838 11.01254,51.2838 z" />
      <path
         style="opacity:0.05;fill:#e9e9e9;stroke:#a2bdcf;stroke-width:0"
         id="path86"
         d="m 355.45778,249.11128 -51.2838,11.01254 -11.01254,51.2838 -11.01254,-51.2838 -51.2838,-11.01254 51.2838,-11.01254 11.01254,-51.2838 11.01254,51.2838 z"
         transform="matrix(0.64655173,0,0,0.64655173,103.6174,88.047952)" />
      <path
         style="opacity:0.05;fill:#e9e9e9;stroke:#a2bdcf;stroke-width:0"
         id="path87"
         d="m 355.45778,249.11128 -51.2838,11.01254 -11.01254,51.2838 -11.01254,-51.2838 -51.2838,-11.01254 51.2838,-11.01254 11.01254,-51.2838 11.01254,51.2838 z"
         transform="matrix(0.3448276,0,0,0.3448276,192.07128,163.21084)" />
    </g>
    <g
       id="g90"
       transform="matrix(0.23193574,0,0,0.23193574,812.38808,451.11234)">
      <path
         style="opacity:0.05;fill:#e9e9e9;stroke:#a2bdcf;stroke-width:0"
         id="path88"
         d="m 355.45778,249.11128 -51.2838,11.01254 -11.01254,51.2838 -11.01254,-51.2838 -51.2838,-11.01254 51.2838,-11.01254 11.01254,-51.2838 11.01254,51.2838 z" />
      <path
         style="opacity:0.05;fill:#e9e9e9;stroke:#a2bdcf;stroke-width:0"
         id="path89"
         d="m 355.45778,249.11128 -51.2838,11.01254 -11.01254,51.2838 -11.01254,-51.2838 -51.2838,-11.01254 51.2838,-11.01254 11.01254,-51.2838 11.01254,51.2838 z"
         transform="matrix(0.64655173,0,0,0.64655173,103.6174,88.047952)" />
      <path
         style="opacity:0.05;fill:#e9e9e9;stroke:#a2bdcf;stroke-width:0"
         id="path90"
         d="m 355.45778,249.11128 -51.2838,11.01254 -11.01254,51.2838 -11.01254,-51.2838 -51.2838,-11.01254 51.2838,-11.01254 11.01254,-51.2838 11.01254,51.2838 z"
         transform="matrix(0.3448276,0,0,0.3448276,192.07128,163.21084)" />
    </g>
    <g
       id="g93"
       transform="matrix(0.23193574,0,0,0.23193574,578.23977,429.63084)">
      <path
         style="opacity:0.05;fill:#e9e9e9;stroke:#a2bdcf;stroke-width:0"
         id="path91"
         d="m 355.45778,249.11128 -51.2838,11.01254 -11.01254,51.2838 -11.01254,-51.2838 -51.2838,-11.01254 51.2838,-11.01254 11.01254,-51.2838 11.01254,51.2838 z" />
      <path
         style="opacity:0.05;fill:#e9e9e9;stroke:#a2bdcf;stroke-width:0"
         id="path92"
         d="m 355.45778,249.11128 -51.2838,11.01254 -11.01254,51.2838 -11.01254,-51.2838 -51.2838,-11.01254 51.2838,-11.01254 11.01254,-51.2838 11.01254,51.2838 z"
         transform="matrix(0.64655173,0,0,0.64655173,103.6174,88.047952)" />
      <path
         style="opacity:0.05;fill:#e9e9e9;stroke:#a2bdcf;stroke-width:0"
         id="path93"
         d="m 355.45778,249.11128 -51.2838,11.01254 -11.01254,51.2838 -11.01254,-51.2838 -51.2838,-11.01254 51.2838,-11.01254 11.01254,-51.2838 11.01254,51.2838 z"
         transform="matrix(0.3448276,0,0,0.3448276,192.07128,163.21084)" />
    </g>
    <g
       id="g96"
       transform="matrix(0.14067896,0,0,0.14067896,926.03157,207.60742)">
      <path
         style="opacity:0.05;fill:#e9e9e9;stroke:#a2bdcf;stroke-width:0"
         id="path94"
         d="m 355.45778,249.11128 -51.2838,11.01254 -11.01254,51.2838 -11.01254,-51.2838 -51.2838,-11.01254 51.2838,-11.01254 11.01254,-51.2838 11.01254,51.2838 z" />
      <path
         style="opacity:0.05;fill:#e9e9e9;stroke:#a2bdcf;stroke-width:0"
         id="path95"
         d="m 355.45778,249.11128 -51.2838,11.01254 -11.01254,51.2838 -11.01254,-51.2838 -51.2838,-11.01254 51.2838,-11.01254 11.01254,-51.2838 11.01254,51.2838 z"
         transform="matrix(0.64655173,0,0,0.64655173,103.6174,88.047952)" />
      <path
         style="opacity:0.05;fill:#e9e9e9;stroke:#a2bdcf;stroke-width:0"
         id="path96"
         d="m 355.45778,249.11128 -51.2838,11.01254 -11.01254,51.2838 -11.01254,-51.2838 -51.2838,-11.01254 51.2838,-11.01254 11.01254,-51.2838 11.01254,51.2838 z"
         transform="matrix(0.3448276,0,0,0.3448276,192.07128,163.21084)" />
    </g>
    <g
       id="g99"
       transform="matrix(0.14067896,0,0,0.14067896,885.21673,286.01488)">
      <path
         style="opacity:0.05;fill:#e9e9e9;stroke:#a2bdcf;stroke-width:0"
         id="path97"
         d="m 355.45778,249.11128 -51.2838,11.01254 -11.01254,51.2838 -11.01254,-51.2838 -51.2838,-11.01254 51.2838,-11.01254 11.01254,-51.2838 11.01254,51.2838 z" />
      <path
         style="opacity:0.05;fill:#e9e9e9;stroke:#a2bdcf;stroke-width:0"
         id="path98"
         d="m 355.45778,249.11128 -51.2838,11.01254 -11.01254,51.2838 -11.01254,-51.2838 -51.2838,-11.01254 51.2838,-11.01254 11.01254,-51.2838 11.01254,51.2838 z"
         transform="matrix(0.64655173,0,0,0.64655173,103.6174,88.047952)" />
      <path
         style="opacity:0.05;fill:#e9e9e9;stroke:#a2bdcf;stroke-width:0"
         id="path99"
         d="m 355.45778,249.11128 -51.2838,11.01254 -11.01254,51.2838 -11.01254,-51.2838 -51.2838,-11.01254 51.2838,-11.01254 11.01254,-51.2838 11.01254,51.2838 z"
         transform="matrix(0.3448276,0,0,0.3448276,192.07128,163.21084)" />
    </g>
    <g
       id="g102"
       transform="matrix(0.23193574,0,0,0.23193574,840.31403,122.44545)">
      <path
         style="opacity:0.05;fill:#e9e9e9;stroke:#a2bdcf;stroke-width:0"
         id="path100"
         d="m 355.45778,249.11128 -51.2838,11.01254 -11.01254,51.2838 -11.01254,-51.2838 -51.2838,-11.01254 51.2838,-11.01254 11.01254,-51.2838 11.01254,51.2838 z" />
      <path
         style="opacity:0.05;fill:#e9e9e9;stroke:#a2bdcf;stroke-width:0"
         id="path101"
         d="m 355.45778,249.11128 -51.2838,11.01254 -11.01254,51.2838 -11.01254,-51.2838 -51.2838,-11.01254 51.2838,-11.01254 11.01254,-51.2838 11.01254,51.2838 z"
         transform="matrix(0.64655173,0,0,0.64655173,103.6174,88.047952)" />
      <path
         style="opacity:0.05;fill:#e9e9e9;stroke:#a2bdcf;stroke-width:0"
         id="path102"
         d="m 355.45778,249.11128 -51.2838,11.01254 -11.01254,51.2838 -11.01254,-51.2838 -51.2838,-11.01254 51.2838,-11.01254 11.01254,-51.2838 11.01254,51.2838 z"
         transform="matrix(0.3448276,0,0,0.3448276,192.07128,163.21084)" />
    </g>
    <g
       id="g105"
       transform="matrix(0.19536125,0,0,0.19536125,860.98591,523.23681)">
      <path
         style="opacity:0.05;fill:#e9e9e9;stroke:#a2bdcf;stroke-width:0"
         id="path103"
         d="m 355.45778,249.11128 -51.2838,11.01254 -11.01254,51.2838 -11.01254,-51.2838 -51.2838,-11.01254 51.2838,-11.01254 11.01254,-51.2838 11.01254,51.2838 z" />
      <path
         style="opacity:0.05;fill:#e9e9e9;stroke:#a2bdcf;stroke-width:0"
         id="path104"
         d="m 355.45778,249.11128 -51.2838,11.01254 -11.01254,51.2838 -11.01254,-51.2838 -51.2838,-11.01254 51.2838,-11.01254 11.01254,-51.2838 11.01254,51.2838 z"
         transform="matrix(0.64655173,0,0,0.64655173,103.6174,88.047952)" />
      <path
         style="opacity:0.05;fill:#e9e9e9;stroke:#a2bdcf;stroke-width:0"
         id="path105"
         d="m 355.45778,249.11128 -51.2838,11.01254 -11.01254,51.2838 -11.01254,-51.2838 -51.2838,-11.01254 51.2838,-11.01254 11.01254,-51.2838 11.01254,51.2838 z"
         transform="matrix(0.3448276,0,0,0.3448276,192.07128,163.21084)" />
    </g>
    <g
       id="g108"
       transform="matrix(0.19536125,0,0,0.19536125,870.09974,406.27603)">
      <path
         style="opacity:0.05;fill:#e9e9e9;stroke:#a2bdcf;stroke-width:0"
         id="path106"
         d="m 355.45778,249.11128 -51.2838,11.01254 -11.01254,51.2838 -11.01254,-51.2838 -51.2838,-11.01254 51.2838,-11.01254 11.01254,-51.2838 11.01254,51.2838 z" />
      <path
         style="opacity:0.05;fill:#e9e9e9;stroke:#a2bdcf;stroke-width:0"
         id="path107"
         d="m 355.45778,249.11128 -51.2838,11.01254 -11.01254,51.2838 -11.01254,-51.2838 -51.2838,-11.01254 51.2838,-11.01254 11.01254,-51.2838 11.01254,51.2838 z"
         transform="matrix(0.64655173,0,0,0.64655173,103.6174,88.047952)" />
      <path
         style="opacity:0.05;fill:#e9e9e9;stroke:#a2bdcf;stroke-width:0"
         id="path108"
         d="m 355.45778,249.11128 -51.2838,11.01254 -11.01254,51.2838 -11.01254,-51.2838 -51.2838,-11.01254 51.2838,-11.01254 11.01254,-51.2838 11.01254,51.2838 z"
         transform="matrix(0.3448276,0,0,0.3448276,192.07128,163.21084)" />
    </g>
    <g
       id="g111"
       transform="matrix(0.23193574,0,0,0.23193574,936.98076,468.29754)">
      <path
         style="opacity:0.05;fill:#e9e9e9;stroke:#a2bdcf;stroke-width:0"
         id="path109"
         d="m 355.45778,249.11128 -51.2838,11.01254 -11.01254,51.2838 -11.01254,-51.2838 -51.2838,-11.01254 51.2838,-11.01254 11.01254,-51.2838 11.01254,51.2838 z" />
      <path
         style="opacity:0.05;fill:#e9e9e9;stroke:#a2bdcf;stroke-width:0"
         id="path110"
         d="m 355.45778,249.11128 -51.2838,11.01254 -11.01254,51.2838 -11.01254,-51.2838 -51.2838,-11.01254 51.2838,-11.01254 11.01254,-51.2838 11.01254,51.2838 z"
         transform="matrix(0.64655173,0,0,0.64655173,103.6174,88.047952)" />
      <path
         style="opacity:0.05;fill:#e9e9e9;stroke:#a2bdcf;stroke-width:0"
         id="path111"
         d="m 355.45778,249.11128 -51.2838,11.01254 -11.01254,51.2838 -11.01254,-51.2838 -51.2838,-11.01254 51.2838,-11.01254 11.01254,-51.2838 11.01254,51.2838 z"
         transform="matrix(0.3448276,0,0,0.3448276,192.07128,163.21084)" />
    </g>
    <g
       id="g114"
       transform="matrix(0.23193574,0,0,0.23193574,899.38815,646.59397)">
      <path
         style="opacity:0.05;fill:#e9e9e9;stroke:#a2bdcf;stroke-width:0"
         id="path112"
         d="m 355.45778,249.11128 -51.2838,11.01254 -11.01254,51.2838 -11.01254,-51.2838 -51.2838,-11.01254 51.2838,-11.01254 11.01254,-51.2838 11.01254,51.2838 z" />
      <path
         style="opacity:0.05;fill:#e9e9e9;stroke:#a2bdcf;stroke-width:0"
         id="path113"
         d="m 355.45778,249.11128 -51.2838,11.01254 -11.01254,51.2838 -11.01254,-51.2838 -51.2838,-11.01254 51.2838,-11.01254 11.01254,-51.2838 11.01254,51.2838 z"
         transform="matrix(0.64655173,0,0,0.64655173,103.6174,88.047952)" />
      <path
         style="opacity:0.05;fill:#e9e9e9;stroke:#a2bdcf;stroke-width:0"
         id="path114"
         d="m 355.45778,249.11128 -51.2838,11.01254 -11.01254,51.2838 -11.01254,-51.2838 -51.2838,-11.01254 51.2838,-11.01254 11.01254,-51.2838 11.01254,51.2838 z"
         transform="matrix(0.3448276,0,0,0.3448276,192.07128,163.21084)" />
    </g>
    <g
       id="g117"
       transform="matrix(0.19536125,0,0,0.19536125,998.98872,580.27615)">
      <path
         style="opacity:0.05;fill:#e9e9e9;stroke:#a2bdcf;stroke-width:0"
         id="path115"
         d="m 355.45778,249.11128 -51.2838,11.01254 -11.01254,51.2838 -11.01254,-51.2838 -51.2838,-11.01254 51.2838,-11.01254 11.01254,-51.2838 11.01254,51.2838 z" />
      <path
         style="opacity:0.05;fill:#e9e9e9;stroke:#a2bdcf;stroke-width:0"
         id="path116"
         d="m 355.45778,249.11128 -51.2838,11.01254 -11.01254,51.2838 -11.01254,-51.2838 -51.2838,-11.01254 51.2838,-11.01254 11.01254,-51.2838 11.01254,51.2838 z"
         transform="matrix(0.64655173,0,0,0.64655173,103.6174,88.047952)" />
      <path
         style="opacity:0.05;fill:#e9e9e9;stroke:#a2bdcf;stroke-width:0"
         id="path117"
         d="m 355.45778,249.11128 -51.2838,11.01254 -11.01254,51.2838 -11.01254,-51.2838 -51.2838,-11.01254 51.2838,-11.01254 11.01254,-51.2838 11.01254,51.2838 z"
         transform="matrix(0.3448276,0,0,0.3448276,192.07128,163.21084)" />
    </g>
    <g
       id="g120"
       transform="matrix(0.23193574,0,0,0.23193574,439.68413,514.48276)">
      <path
         style="opacity:0.05;fill:#e9e9e9;stroke:#a2bdcf;stroke-width:0"
         id="path118"
         d="m 355.45778,249.11128 -51.2838,11.01254 -11.01254,51.2838 -11.01254,-51.2838 -51.2838,-11.01254 51.2838,-11.01254 11.01254,-51.2838 11.01254,51.2838 z" />
      <path
         style="opacity:0.05;fill:#e9e9e9;stroke:#a2bdcf;stroke-width:0"
         id="path119"
         d="m 355.45778,249.11128 -51.2838,11.01254 -11.01254,51.2838 -11.01254,-51.2838 -51.2838,-11.01254 51.2838,-11.01254 11.01254,-51.2838 11.01254,51.2838 z"
         transform="matrix(0.64655173,0,0,0.64655173,103.6174,88.047952)" />
      <path
         style="opacity:0.05;fill:#e9e9e9;stroke:#a2bdcf;stroke-width:0"
         id="path120"
         d="m 355.45778,249.11128 -51.2838,11.01254 -11.01254,51.2838 -11.01254,-51.2838 -51.2838,-11.01254 51.2838,-11.01254 11.01254,-51.2838 11.01254,51.2838 z"
         transform="matrix(0.3448276,0,0,0.3448276,192.07128,163.21084)" />
    </g>
    <g
       id="g123"
       transform="matrix(0.23193574,0,0,0.23193574,544.94346,504.81609)">
      <path
         style="opacity:0.05;fill:#e9e9e9;stroke:#a2bdcf;stroke-width:0"
         id="path121"
         d="m 355.45778,249.11128 -51.2838,11.01254 -11.01254,51.2838 -11.01254,-51.2838 -51.2838,-11.01254 51.2838,-11.01254 11.01254,-51.2838 11.01254,51.2838 z" />
      <path
         style="opacity:0.05;fill:#e9e9e9;stroke:#a2bdcf;stroke-width:0"
         id="path122"
         d="m 355.45778,249.11128 -51.2838,11.01254 -11.01254,51.2838 -11.01254,-51.2838 -51.2838,-11.01254 51.2838,-11.01254 11.01254,-51.2838 11.01254,51.2838 z"
         transform="matrix(0.64655173,0,0,0.64655173,103.6174,88.047952)" />
      <path
         style="opacity:0.05;fill:#e9e9e9;stroke:#a2bdcf;stroke-width:0"
         id="path123"
         d="m 355.45778,249.11128 -51.2838,11.01254 -11.01254,51.2838 -11.01254,-51.2838 -51.2838,-11.01254 51.2838,-11.01254 11.01254,-51.2838 11.01254,51.2838 z"
         transform="matrix(0.3448276,0,0,0.3448276,192.07128,163.21084)" />
    </g>
    <g
       id="g126"
       transform="matrix(0.19536125,0,0,0.19536125,635.4302,555.45905)">
      <path
         style="opacity:0.05;fill:#e9e9e9;stroke:#a2bdcf;stroke-width:0"
         id="path124"
         d="m 355.45778,249.11128 -51.2838,11.01254 -11.01254,51.2838 -11.01254,-51.2838 -51.2838,-11.01254 51.2838,-11.01254 11.01254,-51.2838 11.01254,51.2838 z" />
      <path
         style="opacity:0.05;fill:#e9e9e9;stroke:#a2bdcf;stroke-width:0"
         id="path125"
         d="m 355.45778,249.11128 -51.2838,11.01254 -11.01254,51.2838 -11.01254,-51.2838 -51.2838,-11.01254 51.2838,-11.01254 11.01254,-51.2838 11.01254,51.2838 z"
         transform="matrix(0.64655173,0,0,0.64655173,103.6174,88.047952)" />
      <path
         style="opacity:0.05;fill:#e9e9e9;stroke:#a2bdcf;stroke-width:0"
         id="path126"
         d="m 355.45778,249.11128 -51.2838,11.01254 -11.01254,51.2838 -11.01254,-51.2838 -51.2838,-11.01254 51.2838,-11.01254 11.01254,-51.2838 11.01254,51.2838 z"
         transform="matrix(0.3448276,0,0,0.3448276,192.07128,163.21084)" />
    </g>
    <g
       id="g129"
       transform="matrix(0.23193574,0,0,0.23193574,711.42505,500.51978)">
      <path
         style="opacity:0.05;fill:#e9e9e9;stroke:#a2bdcf;stroke-width:0"
         id="path127"
         d="m 355.45778,249.11128 -51.2838,11.01254 -11.01254,51.2838 -11.01254,-51.2838 -51.2838,-11.01254 51.2838,-11.01254 11.01254,-51.2838 11.01254,51.2838 z" />
      <path
         style="opacity:0.05;fill:#e9e9e9;stroke:#a2bdcf;stroke-width:0"
         id="path128"
         d="m 355.45778,249.11128 -51.2838,11.01254 -11.01254,51.2838 -11.01254,-51.2838 -51.2838,-11.01254 51.2838,-11.01254 11.01254,-51.2838 11.01254,51.2838 z"
         transform="matrix(0.64655173,0,0,0.64655173,103.6174,88.047952)" />
      <path
         style="opacity:0.05;fill:#e9e9e9;stroke:#a2bdcf;stroke-width:0"
         id="path129"
         d="m 355.45778,249.11128 -51.2838,11.01254 -11.01254,51.2838 -11.01254,-51.2838 -51.2838,-11.01254 51.2838,-11.01254 11.01254,-51.2838 11.01254,51.2838 z"
         transform="matrix(0.3448276,0,0,0.3448276,192.07128,163.21084)" />
    </g>
    <g
       id="g132"
       transform="matrix(0.23193574,0,0,0.23193574,590.05461,587.51985)">
      <path
         style="opacity:0.05;fill:#e9e9e9;stroke:#a2bdcf;stroke-width:0"
         id="path130"
         d="m 355.45778,249.11128 -51.2838,11.01254 -11.01254,51.2838 -11.01254,-51.2838 -51.2838,-11.01254 51.2838,-11.01254 11.01254,-51.2838 11.01254,51.2838 z" />
      <path
         style="opacity:0.05;fill:#e9e9e9;stroke:#a2bdcf;stroke-width:0"
         id="path131"
         d="m 355.45778,249.11128 -51.2838,11.01254 -11.01254,51.2838 -11.01254,-51.2838 -51.2838,-11.01254 51.2838,-11.01254 11.01254,-51.2838 11.01254,51.2838 z"
         transform="matrix(0.64655173,0,0,0.64655173,103.6174,88.047952)" />
      <path
         style="opacity:0.05;fill:#e9e9e9;stroke:#a2bdcf;stroke-width:0"
         id="path132"
         d="m 355.45778,249.11128 -51.2838,11.01254 -11.01254,51.2838 -11.01254,-51.2838 -51.2838,-11.01254 51.2838,-11.01254 11.01254,-51.2838 11.01254,51.2838 z"
         transform="matrix(0.3448276,0,0,0.3448276,192.07128,163.21084)" />
    </g>
    <g
       id="g135"
       transform="matrix(0.23193574,0,0,0.23193574,695.31394,577.85318)">
      <path
         style="opacity:0.05;fill:#e9e9e9;stroke:#a2bdcf;stroke-width:0"
         id="path133"
         d="m 355.45778,249.11128 -51.2838,11.01254 -11.01254,51.2838 -11.01254,-51.2838 -51.2838,-11.01254 51.2838,-11.01254 11.01254,-51.2838 11.01254,51.2838 z" />
      <path
         style="opacity:0.05;fill:#e9e9e9;stroke:#a2bdcf;stroke-width:0"
         id="path134"
         d="m 355.45778,249.11128 -51.2838,11.01254 -11.01254,51.2838 -11.01254,-51.2838 -51.2838,-11.01254 51.2838,-11.01254 11.01254,-51.2838 11.01254,51.2838 z"
         transform="matrix(0.64655173,0,0,0.64655173,103.6174,88.047952)" />
      <path
         style="opacity:0.05;fill:#e9e9e9;stroke:#a2bdcf;stroke-width:0"
         id="path135"
         d="m 355.45778,249.11128 -51.2838,11.01254 -11.01254,51.2838 -11.01254,-51.2838 -51.2838,-11.01254 51.2838,-11.01254 11.01254,-51.2838 11.01254,51.2838 z"
         transform="matrix(0.3448276,0,0,0.3448276,192.07128,163.21084)" />
    </g>
    <g
       id="g138"
       transform="matrix(0.19536125,0,0,0.19536125,785.80068,628.49614)">
      <path
         style="opacity:0.05;fill:#e9e9e9;stroke:#a2bdcf;stroke-width:0"
         id="path136"
         d="m 355.45778,249.11128 -51.2838,11.01254 -11.01254,51.2838 -11.01254,-51.2838 -51.2838,-11.01254 51.2838,-11.01254 11.01254,-51.2838 11.01254,51.2838 z" />
      <path
         style="opacity:0.05;fill:#e9e9e9;stroke:#a2bdcf;stroke-width:0"
         id="path137"
         d="m 355.45778,249.11128 -51.2838,11.01254 -11.01254,51.2838 -11.01254,-51.2838 -51.2838,-11.01254 51.2838,-11.01254 11.01254,-51.2838 11.01254,51.2838 z"
         transform="matrix(0.64655173,0,0,0.64655173,103.6174,88.047952)" />
      <path
         style="opacity:0.05;fill:#e9e9e9;stroke:#a2bdcf;stroke-width:0"
         id="path138"
         d="m 355.45778,249.11128 -51.2838,11.01254 -11.01254,51.2838 -11.01254,-51.2838 -51.2838,-11.01254 51.2838,-11.01254 11.01254,-51.2838 11.01254,51.2838 z"
         transform="matrix(0.3448276,0,0,0.3448276,192.07128,163.21084)" />
    </g>
    <g
       id="g141"
       transform="matrix(0.23193574,0,0,0.23193574,861.79553,573.55687)">
      <path
         style="opacity:0.05;fill:#e9e9e9;stroke:#a2bdcf;stroke-width:0"
         id="path139"
         d="m 355.45778,249.11128 -51.2838,11.01254 -11.01254,51.2838 -11.01254,-51.2838 -51.2838,-11.01254 51.2838,-11.01254 11.01254,-51.2838 11.01254,51.2838 z" />
      <path
         style="opacity:0.05;fill:#e9e9e9;stroke:#a2bdcf;stroke-width:0"
         id="path140"
         d="m 355.45778,249.11128 -51.2838,11.01254 -11.01254,51.2838 -11.01254,-51.2838 -51.2838,-11.01254 51.2838,-11.01254 11.01254,-51.2838 11.01254,51.2838 z"
         transform="matrix(0.64655173,0,0,0.64655173,103.6174,88.047952)" />
      <path
         style="opacity:0.05;fill:#e9e9e9;stroke:#a2bdcf;stroke-width:0"
         id="path141"
         d="m 355.45778,249.11128 -51.2838,11.01254 -11.01254,51.2838 -11.01254,-51.2838 -51.2838,-11.01254 51.2838,-11.01254 11.01254,-51.2838 11.01254,51.2838 z"
         transform="matrix(0.3448276,0,0,0.3448276,192.07128,163.21084)" />
    </g>
    <g
       id="g144"
       transform="matrix(0.23193574,0,0,0.23193574,246.35066,256.7048)">
      <path
         style="opacity:0.05;fill:#e9e9e9;stroke:#a2bdcf;stroke-width:0"
         id="path142"
         d="m 355.45778,249.11128 -51.2838,11.01254 -11.01254,51.2838 -11.01254,-51.2838 -51.2838,-11.01254 51.2838,-11.01254 11.01254,-51.2838 11.01254,51.2838 z" />
      <path
         style="opacity:0.05;fill:#e9e9e9;stroke:#a2bdcf;stroke-width:0"
         id="path143"
         d="m 355.45778,249.11128 -51.2838,11.01254 -11.01254,51.2838 -11.01254,-51.2838 -51.2838,-11.01254 51.2838,-11.01254 11.01254,-51.2838 11.01254,51.2838 z"
         transform="matrix(0.64655173,0,0,0.64655173,103.6174,88.047952)" />
      <path
         style="opacity:0.05;fill:#e9e9e9;stroke:#a2bdcf;stroke-width:0"
         id="path144"
         d="m 355.45778,249.11128 -51.2838,11.01254 -11.01254,51.2838 -11.01254,-51.2838 -51.2838,-11.01254 51.2838,-11.01254 11.01254,-51.2838 11.01254,51.2838 z"
         transform="matrix(0.3448276,0,0,0.3448276,192.07128,163.21084)" />
    </g>
    <g
       id="g147"
       transform="matrix(0.28070172,0,0,0.28070172,394.58427,345.56822)">
      <path
         style="opacity:0.05;fill:#e9e9e9;stroke:#a2bdcf;stroke-width:0"
         id="path145"
         d="m 355.45778,249.11128 -51.2838,11.01254 -11.01254,51.2838 -11.01254,-51.2838 -51.2838,-11.01254 51.2838,-11.01254 11.01254,-51.2838 11.01254,51.2838 z" />
      <path
         style="opacity:0.05;fill:#e9e9e9;stroke:#a2bdcf;stroke-width:0"
         id="path146"
         d="m 355.45778,249.11128 -51.2838,11.01254 -11.01254,51.2838 -11.01254,-51.2838 -51.2838,-11.01254 51.2838,-11.01254 11.01254,-51.2838 11.01254,51.2838 z"
         transform="matrix(0.64655173,0,0,0.64655173,103.6174,88.047952)" />
      <path
         style="opacity:0.05;fill:#e9e9e9;stroke:#a2bdcf;stroke-width:0"
         id="path147"
         d="m 355.45778,249.11128 -51.2838,11.01254 -11.01254,51.2838 -11.01254,-51.2838 -51.2838,-11.01254 51.2838,-11.01254 11.01254,-51.2838 11.01254,51.2838 z"
         transform="matrix(0.3448276,0,0,0.3448276,192.07128,163.21084)" />
    </g>
    <g
       id="g150"
       transform="matrix(0.19536125,0,0,0.19536125,283.65489,380.49823)">
      <path
         style="opacity:0.05;fill:#e9e9e9;stroke:#a2bdcf;stroke-width:0"
         id="path148"
         d="m 355.45778,249.11128 -51.2838,11.01254 -11.01254,51.2838 -11.01254,-51.2838 -51.2838,-11.01254 51.2838,-11.01254 11.01254,-51.2838 11.01254,51.2838 z" />
      <path
         style="opacity:0.05;fill:#e9e9e9;stroke:#a2bdcf;stroke-width:0"
         id="path149"
         d="m 355.45778,249.11128 -51.2838,11.01254 -11.01254,51.2838 -11.01254,-51.2838 -51.2838,-11.01254 51.2838,-11.01254 11.01254,-51.2838 11.01254,51.2838 z"
         transform="matrix(0.64655173,0,0,0.64655173,103.6174,88.047952)" />
      <path
         style="opacity:0.05;fill:#e9e9e9;stroke:#a2bdcf;stroke-width:0"
         id="path150"
         d="m 355.45778,249.11128 -51.2838,11.01254 -11.01254,51.2838 -11.01254,-51.2838 -51.2838,-11.01254 51.2838,-11.01254 11.01254,-51.2838 11.01254,51.2838 z"
         transform="matrix(0.3448276,0,0,0.3448276,192.07128,163.21084)" />
    </g>
    <g
       id="g153"
       transform="matrix(0.23193574,0,0,0.23193574,351.60999,247.03813)">
      <path
         style="opacity:0.05;fill:#e9e9e9;stroke:#a2bdcf;stroke-width:0"
         id="path151"
         d="m 355.45778,249.11128 -51.2838,11.01254 -11.01254,51.2838 -11.01254,-51.2838 -51.2838,-11.01254 51.2838,-11.01254 11.01254,-51.2838 11.01254,51.2838 z" />
      <path
         style="opacity:0.05;fill:#e9e9e9;stroke:#a2bdcf;stroke-width:0"
         id="path152"
         d="m 355.45778,249.11128 -51.2838,11.01254 -11.01254,51.2838 -11.01254,-51.2838 -51.2838,-11.01254 51.2838,-11.01254 11.01254,-51.2838 11.01254,51.2838 z"
         transform="matrix(0.64655173,0,0,0.64655173,103.6174,88.047952)" />
      <path
         style="opacity:0.05;fill:#e9e9e9;stroke:#a2bdcf;stroke-width:0"
         id="path153"
         d="m 355.45778,249.11128 -51.2838,11.01254 -11.01254,51.2838 -11.01254,-51.2838 -51.2838,-11.01254 51.2838,-11.01254 11.01254,-51.2838 11.01254,51.2838 z"
         transform="matrix(0.3448276,0,0,0.3448276,192.07128,163.21084)" />
    </g>
    <g
       id="g156"
       transform="matrix(0.23193574,0,0,0.23193574,114.23945,259.92702)">
      <path
         style="opacity:0.05;fill:#e9e9e9;stroke:#a2bdcf;stroke-width:0"
         id="path154"
         d="m 355.45778,249.11128 -51.2838,11.01254 -11.01254,51.2838 -11.01254,-51.2838 -51.2838,-11.01254 51.2838,-11.01254 11.01254,-51.2838 11.01254,51.2838 z" />
      <path
         style="opacity:0.05;fill:#e9e9e9;stroke:#a2bdcf;stroke-width:0"
         id="path155"
         d="m 355.45778,249.11128 -51.2838,11.01254 -11.01254,51.2838 -11.01254,-51.2838 -51.2838,-11.01254 51.2838,-11.01254 11.01254,-51.2838 11.01254,51.2838 z"
         transform="matrix(0.64655173,0,0,0.64655173,103.6174,88.047952)" />
      <path
         style="opacity:0.05;fill:#e9e9e9;stroke:#a2bdcf;stroke-width:0"
         id="path156"
         d="m 355.45778,249.11128 -51.2838,11.01254 -11.01254,51.2838 -11.01254,-51.2838 -51.2838,-11.01254 51.2838,-11.01254 11.01254,-51.2838 11.01254,51.2838 z"
         transform="matrix(0.3448276,0,0,0.3448276,192.07128,163.21084)" />
    </g>
    <g
       id="g159"
       transform="matrix(0.23193574,0,0,0.23193574,15.424566,360.89005)">
      <path
         style="opacity:0.05;fill:#e9e9e9;stroke:#a2bdcf;stroke-width:0"
         id="path157"
         d="m 355.45778,249.11128 -51.2838,11.01254 -11.01254,51.2838 -11.01254,-51.2838 -51.2838,-11.01254 51.2838,-11.01254 11.01254,-51.2838 11.01254,51.2838 z" />
      <path
         style="opacity:0.05;fill:#e9e9e9;stroke:#a2bdcf;stroke-width:0"
         id="path158"
         d="m 355.45778,249.11128 -51.2838,11.01254 -11.01254,51.2838 -11.01254,-51.2838 -51.2838,-11.01254 51.2838,-11.01254 11.01254,-51.2838 11.01254,51.2838 z"
         transform="matrix(0.64655173,0,0,0.64655173,103.6174,88.047952)" />
      <path
         style="opacity:0.05;fill:#e9e9e9;stroke:#a2bdcf;stroke-width:0"
         id="path159"
         d="m 355.45778,249.11128 -51.2838,11.01254 -11.01254,51.2838 -11.01254,-51.2838 -51.2838,-11.01254 51.2838,-11.01254 11.01254,-51.2838 11.01254,51.2838 z"
         transform="matrix(0.3448276,0,0,0.3448276,192.07128,163.21084)" />
    </g>
    <g
       id="g162"
       transform="matrix(0.23193574,0,0,0.23193574,163.64689,350.14931)">
      <path
         style="opacity:0.05;fill:#e9e9e9;stroke:#a2bdcf;stroke-width:0"
         id="path160"
         d="m 355.45778,249.11128 -51.2838,11.01254 -11.01254,51.2838 -11.01254,-51.2838 -51.2838,-11.01254 51.2838,-11.01254 11.01254,-51.2838 11.01254,51.2838 z" />
      <path
         style="opacity:0.05;fill:#e9e9e9;stroke:#a2bdcf;stroke-width:0"
         id="path161"
         d="m 355.45778,249.11128 -51.2838,11.01254 -11.01254,51.2838 -11.01254,-51.2838 -51.2838,-11.01254 51.2838,-11.01254 11.01254,-51.2838 11.01254,51.2838 z"
         transform="matrix(0.64655173,0,0,0.64655173,103.6174,88.047952)" />
      <path
         style="opacity:0.05;fill:#e9e9e9;stroke:#a2bdcf;stroke-width:0"
         id="path162"
         d="m 355.45778,249.11128 -51.2838,11.01254 -11.01254,51.2838 -11.01254,-51.2838 -51.2838,-11.01254 51.2838,-11.01254 11.01254,-51.2838 11.01254,51.2838 z"
         transform="matrix(0.3448276,0,0,0.3448276,192.07128,163.21084)" />
    </g>
    <g
       id="g165"
       transform="matrix(0.23193574,0,0,0.23193574,79.869053,446.81604)">
      <path
         style="opacity:0.05;fill:#e9e9e9;stroke:#a2bdcf;stroke-width:0"
         id="path163"
         d="m 355.45778,249.11128 -51.2838,11.01254 -11.01254,51.2838 -11.01254,-51.2838 -51.2838,-11.01254 51.2838,-11.01254 11.01254,-51.2838 11.01254,51.2838 z" />
      <path
         style="opacity:0.05;fill:#e9e9e9;stroke:#a2bdcf;stroke-width:0"
         id="path164"
         d="m 355.45778,249.11128 -51.2838,11.01254 -11.01254,51.2838 -11.01254,-51.2838 -51.2838,-11.01254 51.2838,-11.01254 11.01254,-51.2838 11.01254,51.2838 z"
         transform="matrix(0.64655173,0,0,0.64655173,103.6174,88.047952)" />
      <path
         style="opacity:0.05;fill:#e9e9e9;stroke:#a2bdcf;stroke-width:0"
         id="path165"
         d="m 355.45778,249.11128 -51.2838,11.01254 -11.01254,51.2838 -11.01254,-51.2838 -51.2838,-11.01254 51.2838,-11.01254 11.01254,-51.2838 11.01254,51.2838 z"
         transform="matrix(0.3448276,0,0,0.3448276,192.07128,163.21084)" />
    </g>
    <g
       id="g168"
       transform="matrix(0.30508472,0,0,0.30508472,130.68527,89.333403)">
      <path
         style="opacity:0.05;fill:#e9e9e9;stroke:#a2bdcf;stroke-width:0"
         id="path166"
         d="m 355.45778,249.11128 -51.2838,11.01254 -11.01254,51.2838 -11.01254,-51.2838 -51.2838,-11.01254 51.2838,-11.01254 11.01254,-51.2838 11.01254,51.2838 z" />
      <path
         style="opacity:0.05;fill:#e9e9e9;stroke:#a2bdcf;stroke-width:0"
         id="path167"
         d="m 355.45778,249.11128 -51.2838,11.01254 -11.01254,51.2838 -11.01254,-51.2838 -51.2838,-11.01254 51.2838,-11.01254 11.01254,-51.2838 11.01254,51.2838 z"
         transform="matrix(0.64655173,0,0,0.64655173,103.6174,88.047952)" />
      <path
         style="opacity:0.05;fill:#e9e9e9;stroke:#a2bdcf;stroke-width:0"
         id="path168"
         d="m 355.45778,249.11128 -51.2838,11.01254 -11.01254,51.2838 -11.01254,-51.2838 -51.2838,-11.01254 51.2838,-11.01254 11.01254,-51.2838 11.01254,51.2838 z"
         transform="matrix(0.3448276,0,0,0.3448276,192.07128,163.21084)" />
    </g>
    <g
       id="g171"
       transform="matrix(0.23193574,0,0,0.23193574,140.01724,-10.739838)">
      <path
         style="opacity:0.05;fill:#e9e9e9;stroke:#a2bdcf;stroke-width:0"
         id="path169"
         d="m 355.45778,249.11128 -51.2838,11.01254 -11.01254,51.2838 -11.01254,-51.2838 -51.2838,-11.01254 51.2838,-11.01254 11.01254,-51.2838 11.01254,51.2838 z" />
      <path
         style="opacity:0.05;fill:#e9e9e9;stroke:#a2bdcf;stroke-width:0"
         id="path170"
         d="m 355.45778,249.11128 -51.2838,11.01254 -11.01254,51.2838 -11.01254,-51.2838 -51.2838,-11.01254 51.2838,-11.01254 11.01254,-51.2838 11.01254,51.2838 z"
         transform="matrix(0.64655173,0,0,0.64655173,103.6174,88.047952)" />
      <path
         style="opacity:0.05;fill:#e9e9e9;stroke:#a2bdcf;stroke-width:0"
         id="path171"
         d="m 355.45778,249.11128 -51.2838,11.01254 -11.01254,51.2838 -11.01254,-51.2838 -51.2838,-11.01254 51.2838,-11.01254 11.01254,-51.2838 11.01254,51.2838 z"
         transform="matrix(0.3448276,0,0,0.3448276,192.07128,163.21084)" />
    </g>
    <g
       id="g174"
       transform="matrix(0.23193574,0,0,0.23193574,41.202362,90.223193)">
      <path
         style="opacity:0.05;fill:#e9e9e9;stroke:#a2bdcf;stroke-width:0"
         id="path172"
         d="m 355.45778,249.11128 -51.2838,11.01254 -11.01254,51.2838 -11.01254,-51.2838 -51.2838,-11.01254 51.2838,-11.01254 11.01254,-51.2838 11.01254,51.2838 z" />
      <path
         style="opacity:0.05;fill:#e9e9e9;stroke:#a2bdcf;stroke-width:0"
         id="path173"
         d="m 355.45778,249.11128 -51.2838,11.01254 -11.01254,51.2838 -11.01254,-51.2838 -51.2838,-11.01254 51.2838,-11.01254 11.01254,-51.2838 11.01254,51.2838 z"
         transform="matrix(0.64655173,0,0,0.64655173,103.6174,88.047952)" />
      <path
         style="opacity:0.05;fill:#e9e9e9;stroke:#a2bdcf;stroke-width:0"
         id="path174"
         d="m 355.45778,249.11128 -51.2838,11.01254 -11.01254,51.2838 -11.01254,-51.2838 -51.2838,-11.01254 51.2838,-11.01254 11.01254,-51.2838 11.01254,51.2838 z"
         transform="matrix(0.3448276,0,0,0.3448276,192.07128,163.21084)" />
    </g>
    <g
       id="g177"
       transform="matrix(0.23193574,0,0,0.23193574,26.165314,197.63068)">
      <path
         style="opacity:0.05;fill:#e9e9e9;stroke:#a2bdcf;stroke-width:0"
         id="path175"
         d="m 355.45778,249.11128 -51.2838,11.01254 -11.01254,51.2838 -11.01254,-51.2838 -51.2838,-11.01254 51.2838,-11.01254 11.01254,-51.2838 11.01254,51.2838 z" />
      <path
         style="opacity:0.05;fill:#e9e9e9;stroke:#a2bdcf;stroke-width:0"
         id="path176"
         d="m 355.45778,249.11128 -51.2838,11.01254 -11.01254,51.2838 -11.01254,-51.2838 -51.2838,-11.01254 51.2838,-11.01254 11.01254,-51.2838 11.01254,51.2838 z"
         transform="matrix(0.64655173,0,0,0.64655173,103.6174,88.047952)" />
      <path
         style="opacity:0.05;fill:#e9e9e9;stroke:#a2bdcf;stroke-width:0"
         id="path177"
         d="m 355.45778,249.11128 -51.2838,11.01254 -11.01254,51.2838 -11.01254,-51.2838 -51.2838,-11.01254 51.2838,-11.01254 11.01254,-51.2838 11.01254,51.2838 z"
         transform="matrix(0.3448276,0,0,0.3448276,192.07128,163.21084)" />
    </g>
    <g
       id="g180"
       transform="matrix(0.23193574,0,0,0.23193574,26.165314,283.55667)">
      <path
         style="opacity:0.05;fill:#e9e9e9;stroke:#a2bdcf;stroke-width:0"
         id="path178"
         d="m 355.45778,249.11128 -51.2838,11.01254 -11.01254,51.2838 -11.01254,-51.2838 -51.2838,-11.01254 51.2838,-11.01254 11.01254,-51.2838 11.01254,51.2838 z" />
      <path
         style="opacity:0.05;fill:#e9e9e9;stroke:#a2bdcf;stroke-width:0"
         id="path179"
         d="m 355.45778,249.11128 -51.2838,11.01254 -11.01254,51.2838 -11.01254,-51.2838 -51.2838,-11.01254 51.2838,-11.01254 11.01254,-51.2838 11.01254,51.2838 z"
         transform="matrix(0.64655173,0,0,0.64655173,103.6174,88.047952)" />
      <path
         style="opacity:0.05;fill:#e9e9e9;stroke:#a2bdcf;stroke-width:0"
         id="path180"
         d="m 355.45778,249.11128 -51.2838,11.01254 -11.01254,51.2838 -11.01254,-51.2838 -51.2838,-11.01254 51.2838,-11.01254 11.01254,-51.2838 11.01254,51.2838 z"
         transform="matrix(0.3448276,0,0,0.3448276,192.07128,163.21084)" />
    </g>
    <g
       id="g183"
       transform="matrix(0.23193574,0,0,0.23193574,744.75299,218.61714)">
      <path
         style="opacity:0.05;fill:#e9e9e9;stroke:#a2bdcf;stroke-width:0"
         id="path181"
         d="m 355.45778,249.11128 -51.2838,11.01254 -11.01254,51.2838 -11.01254,-51.2838 -51.2838,-11.01254 51.2838,-11.01254 11.01254,-51.2838 11.01254,51.2838 z" />
      <path
         style="opacity:0.05;fill:#e9e9e9;stroke:#a2bdcf;stroke-width:0"
         id="path182"
         d="m 355.45778,249.11128 -51.2838,11.01254 -11.01254,51.2838 -11.01254,-51.2838 -51.2838,-11.01254 51.2838,-11.01254 11.01254,-51.2838 11.01254,51.2838 z"
         transform="matrix(0.64655173,0,0,0.64655173,103.6174,88.047952)" />
      <path
         style="opacity:0.05;fill:#e9e9e9;stroke:#a2bdcf;stroke-width:0"
         id="path183"
         d="m 355.45778,249.11128 -51.2838,11.01254 -11.01254,51.2838 -11.01254,-51.2838 -51.2838,-11.01254 51.2838,-11.01254 11.01254,-51.2838 11.01254,51.2838 z"
         transform="matrix(0.3448276,0,0,0.3448276,192.07128,163.21084)" />
    </g>
    <g
       id="g186"
       transform="matrix(0.23193574,0,0,0.23193574,822.08638,201.43195)">
      <path
         style="opacity:0.05;fill:#e9e9e9;stroke:#a2bdcf;stroke-width:0"
         id="path184"
         d="m 355.45778,249.11128 -51.2838,11.01254 -11.01254,51.2838 -11.01254,-51.2838 -51.2838,-11.01254 51.2838,-11.01254 11.01254,-51.2838 11.01254,51.2838 z" />
      <path
         style="opacity:0.05;fill:#e9e9e9;stroke:#a2bdcf;stroke-width:0"
         id="path185"
         d="m 355.45778,249.11128 -51.2838,11.01254 -11.01254,51.2838 -11.01254,-51.2838 -51.2838,-11.01254 51.2838,-11.01254 11.01254,-51.2838 11.01254,51.2838 z"
         transform="matrix(0.64655173,0,0,0.64655173,103.6174,88.047952)" />
      <path
         style="opacity:0.05;fill:#e9e9e9;stroke:#a2bdcf;stroke-width:0"
         id="path186"
         d="m 355.45778,249.11128 -51.2838,11.01254 -11.01254,51.2838 -11.01254,-51.2838 -51.2838,-11.01254 51.2838,-11.01254 11.01254,-51.2838 11.01254,51.2838 z"
         transform="matrix(0.3448276,0,0,0.3448276,192.07128,163.21084)" />
    </g>
    <g
       id="g189"
       transform="matrix(0.24412723,0,0,0.24412723,646.0928,340.81888)">
      <path
         style="opacity:0.05;fill:#e9e9e9;stroke:#a2bdcf;stroke-width:0"
         id="path187"
         d="m 355.45778,249.11128 -51.2838,11.01254 -11.01254,51.2838 -11.01254,-51.2838 -51.2838,-11.01254 51.2838,-11.01254 11.01254,-51.2838 11.01254,51.2838 z" />
      <path
         style="opacity:0.05;fill:#e9e9e9;stroke:#a2bdcf;stroke-width:0"
         id="path188"
         d="m 355.45778,249.11128 -51.2838,11.01254 -11.01254,51.2838 -11.01254,-51.2838 -51.2838,-11.01254 51.2838,-11.01254 11.01254,-51.2838 11.01254,51.2838 z"
         transform="matrix(0.64655173,0,0,0.64655173,103.6174,88.047952)" />
      <path
         style="opacity:0.05;fill:#e9e9e9;stroke:#a2bdcf;stroke-width:0"
         id="path189"
         d="m 355.45778,249.11128 -51.2838,11.01254 -11.01254,51.2838 -11.01254,-51.2838 -51.2838,-11.01254 51.2838,-11.01254 11.01254,-51.2838 11.01254,51.2838 z"
         transform="matrix(0.3448276,0,0,0.3448276,192.07128,163.21084)" />
    </g>
  </g>
</svg>
